<svg xmlns="http://www.w3.org/2000/svg" version="1.1" xmlns:xlink="http://www.w3.org/1999/xlink" xmlns:svgjs="http://svgjs.dev/svgjs" width="1440" height="250" preserveAspectRatio="none" viewBox="0 0 1440 250"><g mask="url(&quot;#SvgjsMask1021&quot;)" fill="none"><path d="M34 250L284 0L434 0L184 250z" fill="url(&quot;#SvgjsLinearGradient1022&quot;)"></path><path d="M271.6 250L521.6 0L700.1 0L450.1 250z" fill="url(&quot;#SvgjsLinearGradient1022&quot;)"></path><path d="M492.20000000000005 250L742.2 0L868.2 0L618.2 250z" fill="url(&quot;#SvgjsLinearGradient1022&quot;)"></path><path d="M755.8000000000001 250L1005.8000000000001 0L1148.3000000000002 0L898.3000000000001 250z" fill="url(&quot;#SvgjsLinearGradient1022&quot;)"></path><path d="M1395 250L1145 0L900.5 0L1150.5 250z" fill="url(&quot;#SvgjsLinearGradient1023&quot;)"></path><path d="M1175.4 250L925.4000000000001 0L775.4000000000001 0L1025.4 250z" fill="url(&quot;#SvgjsLinearGradient1023&quot;)"></path><path d="M962.8 250L712.8 0L583.8 0L833.8 250z" fill="url(&quot;#SvgjsLinearGradient1023&quot;)"></path><path d="M699.1999999999999 250L449.19999999999993 0L347.19999999999993 0L597.1999999999999 250z" fill="url(&quot;#SvgjsLinearGradient1023&quot;)"></path><path d="M1224.4023392257564 250L1440 34.40233922575629L1440 250z" fill="url(&quot;#SvgjsLinearGradient1022&quot;)"></path><path d="M0 250L215.5976607742437 250L 0 34.40233922575629z" fill="url(&quot;#SvgjsLinearGradient1023&quot;)"></path></g><defs><mask id="SvgjsMask1021"><rect width="1440" height="250" fill="#ffffff"></rect></mask><linearGradient x1="0%" y1="100%" x2="100%" y2="0%" id="SvgjsLinearGradient1022"><stop stop-color="rgba(0, 0, 0, 0.2)" offset="0"></stop><stop stop-opacity="0" stop-color="rgba(0, 0, 0, 0.2)" offset="0.66"></stop></linearGradient><linearGradient x1="100%" y1="100%" x2="0%" y2="0%" id="SvgjsLinearGradient1023"><stop stop-color="rgba(0, 0, 0, 0.2)" offset="0"></stop><stop stop-opacity="0" stop-color="rgba(0, 0, 0, 0.2)" offset="0.66"></stop></linearGradient></defs></svg>