<svg xmlns="http://www.w3.org/2000/svg" version="1.1" xmlns:xlink="http://www.w3.org/1999/xlink" xmlns:svgjs="http://svgjs.dev/svgjs" width="1440" height="565" preserveAspectRatio="none" viewBox="0 0 1440 565"><g mask="url(&quot;#SvgjsMask1832&quot;)" fill="none"><rect width="1440" height="565" x="0" y="0" fill="url(&quot;#SvgjsLinearGradient1833&quot;)"></rect><path d="M1440 0L1140.29 0L1440 266.81z" fill="rgba(255, 255, 255, .1)"></path><path d="M1140.29 0L1440 266.81L1440 415.62L578 0z" fill="rgba(255, 255, 255, .075)"></path><path d="M578 0L1440 415.62L1440 433.37L481.57 0z" fill="rgba(255, 255, 255, .05)"></path><path d="M481.56999999999994 0L1440 433.37L1440 459.24L276.7399999999999 0z" fill="rgba(255, 255, 255, .025)"></path><path d="M0 565L436.51 565L0 480.74z" fill="rgba(0, 0, 0, .1)"></path><path d="M0 480.74L436.51 565L446.90999999999997 565L0 339.29z" fill="rgba(0, 0, 0, .075)"></path><path d="M0 339.29L446.90999999999997 565L855.6099999999999 565L0 238.01000000000002z" fill="rgba(0, 0, 0, .05)"></path><path d="M0 238.01L855.6099999999999 565L1046.1 565L0 95.60999999999999z" fill="rgba(0, 0, 0, .025)"></path></g><defs><mask id="SvgjsMask1832"><rect width="1440" height="565" fill="#ffffff"></rect></mask><linearGradient x1="50%" y1="100%" x2="50%" y2="0%" gradientUnits="userSpaceOnUse" id="SvgjsLinearGradient1833"><stop stop-color="rgba(14, 42, 71, 1)" offset="0"></stop><stop stop-color="rgba(227, 227, 227, 0.47)" offset="1"></stop></linearGradient></defs></svg>